<svg xmlns="http://www.w3.org/2000/svg" version="1.1" xmlns:xlink="http://www.w3.org/1999/xlink" width="512" height="512" x="0" y="0" viewBox="0 0 404.375 404.375" style="enable-background:new 0 0 512 512" xml:space="preserve" class=""><g transform="matrix(-1,-1.2246467991473532e-16,1.2246467991473532e-16,-1,404.3762512207031,404.3752555847168)"><path d="M108.669 404.375c-4.18 0-7.837-1.567-10.971-4.702-6.269-6.269-6.269-16.196 0-21.943l176.065-175.543L97.698 26.645c-6.269-6.269-6.269-16.196 0-21.943 6.269-6.269 16.196-6.269 21.943 0l187.037 186.514c3.135 3.135 4.702 6.792 4.702 10.971 0 4.18-1.567 8.359-4.702 10.971L119.641 399.673c-3.135 3.135-6.792 4.702-10.972 4.702z" style="" fill="#1185e0" data-original="#1185e0" class=""></path></g></svg>