<svg width="380" height="201" viewBox="0 0 380 201" fill="none" xmlns="http://www.w3.org/2000/svg">
<path d="M333.458 19.0654H311.612V17.412H331.881V10.272H344.268V11.9255H333.458V19.0654Z" fill="url(#paint0_linear_3335_193746)"/>
<path d="M364.086 25.3037H308.61V26.9572H364.086V25.3037Z" fill="url(#paint1_linear_3335_193746)"/>
<path d="M377.898 51.6011H329.779V40.9287L304.331 40.6281V38.9746L331.431 39.3504V49.9476H377.898V51.6011Z" fill="url(#paint2_linear_3335_193746)"/>
<path d="M344.268 13.203C345.429 13.203 346.369 12.2608 346.369 11.0986C346.369 9.93631 345.429 8.99414 344.268 8.99414C343.107 8.99414 342.165 9.93631 342.165 11.0986C342.165 12.2608 343.107 13.203 344.268 13.203Z" fill="#3989FF"/>
<path d="M364.086 28.2347C365.247 28.2347 366.189 27.2925 366.189 26.1303C366.189 24.968 365.247 24.0259 364.086 24.0259C362.925 24.0259 361.984 24.968 361.984 26.1303C361.984 27.2925 362.925 28.2347 364.086 28.2347Z" fill="#3989FF"/>
<path d="M377.898 52.8787C379.059 52.8787 380 51.9365 380 50.7743C380 49.6121 379.059 48.6699 377.898 48.6699C376.737 48.6699 375.797 49.6121 375.797 50.7743C375.797 51.9365 376.737 52.8787 377.898 52.8787Z" fill="#3989FF"/>
<path d="M360.395 146.266H308.587V147.929H360.395V146.266Z" fill="url(#paint3_linear_3335_193746)"/>
<path d="M342.193 154.961H307.076V156.625H342.193V154.961Z" fill="url(#paint4_linear_3335_193746)"/>
<path d="M359.714 149.138C360.882 149.138 361.829 148.191 361.829 147.022C361.829 145.852 360.882 144.905 359.714 144.905C358.547 144.905 357.6 145.852 357.6 147.022C357.6 148.191 358.547 149.138 359.714 149.138Z" fill="#3989FF"/>
<path d="M342.194 157.909C343.362 157.909 344.308 156.962 344.308 155.792C344.308 154.623 343.362 153.676 342.194 153.676C341.026 153.676 340.08 154.623 340.08 155.792C340.08 156.962 341.026 157.909 342.194 157.909Z" fill="#3989FF"/>
<g opacity="0.5">
<path opacity="0.5" d="M78.8065 116.383H1.23223C0.560109 116.383 0 115.456 0 114.344V113.973C0 112.86 0.560109 111.933 1.23223 111.933H78.8624C79.5347 111.933 80.0946 112.86 80.0946 113.973V114.344C80.0388 115.456 79.4781 116.383 78.8065 116.383Z" fill="url(#paint5_linear_3335_193746)"/>
<path opacity="0.5" d="M78.8065 123.799H1.23223C0.560109 123.799 0 123.027 0 122.099V121.791C0 120.863 0.560109 120.091 1.23223 120.091H78.8624C79.5347 120.091 80.0946 120.863 80.0946 121.791V122.099C80.0388 123.104 79.4781 123.799 78.8065 123.799Z" fill="url(#paint6_linear_3335_193746)"/>
<path opacity="0.5" d="M26.0876 131.957H1.35227C0.619786 131.957 0 131.107 0 130.103C0 129.099 0.619786 128.249 1.35227 128.249H26.0876C26.82 128.249 27.4398 129.099 27.4398 130.103C27.4398 131.107 26.82 131.957 26.0876 131.957Z" fill="url(#paint7_linear_3335_193746)"/>
</g>
<g opacity="0.5">
<path opacity="0.5" d="M79.8589 15.7138H37.5942C37.2283 15.7138 36.9233 14.8486 36.9233 13.8104V13.4643C36.9233 12.426 37.2283 11.5608 37.5942 11.5608H79.8589C80.2245 11.5608 80.5297 12.426 80.5297 13.4643V13.8104C80.4989 14.8486 80.2245 15.7138 79.8589 15.7138Z" fill="url(#paint8_linear_3335_193746)"/>
<path opacity="0.5" d="M61.8919 22.9846H38.8881C37.8674 22.9846 37.0039 22.1201 37.0039 21.0981C37.0039 20.0763 37.8674 19.2117 38.8881 19.2117H61.8919C62.9125 19.2117 63.7761 20.0763 63.7761 21.0981C63.6976 22.1986 62.9125 22.9846 61.8919 22.9846Z" fill="url(#paint9_linear_3335_193746)"/>
</g>
<path d="M179.764 160.695H207.461L211.605 200.047H175.643L179.764 160.695Z" fill="url(#paint10_linear_3335_193746)"/>
<rect x="152" y="195.976" width="83.2475" height="4.07087" rx="0.801968" fill="url(#paint11_linear_3335_193746)"/>
<path d="M76 9.99999C76 4.47715 80.4772 0 86 0H301.869C307.392 0 311.869 4.47715 311.869 10V158.674C311.869 164.197 307.392 168.674 301.869 168.674H86C80.4771 168.674 76 164.197 76 158.674V9.99999Z" fill="url(#paint12_linear_3335_193746)"/>
<g filter="url(#filter0_i_3335_193746)">
<rect x="83" y="7" width="221" height="145" rx="8" fill="#F4F5F7"/>
</g>
<g filter="url(#filter1_d_3335_193746)">
<g filter="url(#filter2_d_3335_193746)">
<path d="M348.227 127.363H193.899C189.862 127.363 186.632 124.129 186.632 120.087V87.3461C186.632 83.304 189.862 80.0702 193.899 80.0702H348.126C352.163 80.0702 355.393 83.304 355.393 87.3461V119.986C355.494 124.029 352.264 127.363 348.227 127.363Z" fill="url(#paint13_linear_3335_193746)"/>
<path d="M354.784 119.986V119.994L354.784 120.002C354.876 123.704 351.919 126.754 348.227 126.754H193.899C190.199 126.754 187.241 123.794 187.241 120.087V87.3461C187.241 83.6396 190.199 80.6792 193.899 80.6792H348.126C351.826 80.6792 354.784 83.6396 354.784 87.3461V119.986Z" stroke="url(#paint14_linear_3335_193746)" stroke-width="1.21799"/>
</g>
</g>
<path d="M348.227 127.869H193.899C189.559 127.869 186.127 124.332 186.127 120.087V87.3459C186.127 83.0005 189.66 79.5647 193.899 79.5647H348.126C352.467 79.5647 355.897 83.1017 355.897 87.3459V119.986C355.999 124.332 352.467 127.869 348.227 127.869ZM193.899 80.4743C190.165 80.4743 187.137 83.5059 187.137 87.2448V119.986C187.137 123.725 190.165 126.757 193.899 126.757H348.126C351.86 126.757 354.888 123.725 354.888 119.986V87.2448C354.888 83.5059 351.86 80.4743 348.126 80.4743H193.899Z" fill="#ABCDFF"/>
<path fill-rule="evenodd" clip-rule="evenodd" d="M320.744 102.702H318.792V109.282H316.538V102.702H315.295V101.614L316.538 101.007V100.4C316.538 99.4574 316.77 98.7692 317.232 98.3349C317.696 97.9007 318.438 97.6836 319.458 97.6836C320.237 97.6836 320.929 97.7996 321.535 98.0314L320.958 99.6894C320.505 99.5463 320.086 99.4748 319.702 99.4748C319.382 99.4748 319.15 99.5709 319.007 99.7634C318.865 99.9509 318.792 100.193 318.792 100.489V101.007H320.744V102.702ZM225.114 108.297C225.67 109.052 226.434 109.43 227.406 109.43C228.455 109.43 229.236 109.023 229.749 108.209H229.844L230.28 109.282H232.01V97.7651H229.749V100.415C229.749 100.898 229.805 101.448 229.918 102.065H229.844C229.298 101.256 228.504 100.851 227.464 100.851C226.474 100.851 225.695 101.231 225.128 101.991C224.566 102.746 224.285 103.802 224.285 105.159C224.285 106.496 224.562 107.542 225.114 108.297ZM229.46 107.128C229.194 107.463 228.772 107.631 228.197 107.631C227.674 107.631 227.272 107.429 226.991 107.024C226.71 106.615 226.57 106.003 226.57 105.189C226.57 104.374 226.708 103.755 226.984 103.331C227.265 102.902 227.656 102.687 228.159 102.687C228.775 102.687 229.218 102.88 229.489 103.264C229.766 103.649 229.904 104.286 229.904 105.174V105.418C229.879 106.222 229.731 106.792 229.46 107.128ZM220.45 108.156L220.886 109.281H222.461V103.768C222.461 102.781 222.164 102.045 221.573 101.562C220.982 101.078 220.131 100.837 219.023 100.837C217.864 100.837 216.81 101.086 215.858 101.584L216.605 103.109C217.497 102.709 218.273 102.509 218.933 102.509C219.792 102.509 220.221 102.929 220.221 103.768V104.13L218.785 104.175C217.549 104.219 216.622 104.451 216.006 104.87C215.395 105.285 215.09 105.931 215.09 106.81C215.09 107.648 215.316 108.295 215.77 108.749C216.228 109.203 216.854 109.43 217.648 109.43C218.293 109.43 218.816 109.338 219.214 109.156C219.618 108.968 220.011 108.635 220.39 108.156H220.45ZM219.347 105.477L220.221 105.448V106.129C220.221 106.627 220.063 107.027 219.747 107.327C219.437 107.629 219.02 107.779 218.497 107.779C217.768 107.779 217.404 107.461 217.404 106.824C217.404 106.38 217.564 106.05 217.884 105.833C218.204 105.615 218.692 105.497 219.347 105.477ZM233.719 104.685C233.719 102.544 234.17 100.95 235.072 99.9038C235.978 98.8577 237.334 98.3347 239.138 98.3347C239.754 98.3347 240.237 98.3718 240.587 98.4458V100.274C240.149 100.175 239.714 100.126 239.286 100.126C238.502 100.126 237.861 100.244 237.363 100.481C236.871 100.718 236.501 101.068 236.255 101.532C236.008 101.996 235.862 102.655 235.819 103.508H235.914C236.403 102.669 237.183 102.25 238.258 102.25C239.225 102.25 239.981 102.554 240.527 103.16C241.075 103.767 241.349 104.606 241.349 105.677C241.349 106.831 241.023 107.747 240.372 108.423C239.722 109.094 238.82 109.429 237.667 109.429C236.869 109.429 236.171 109.244 235.575 108.874C234.983 108.504 234.525 107.964 234.199 107.253C233.879 106.543 233.719 105.687 233.719 104.685ZM237.622 107.601C238.11 107.601 238.486 107.438 238.745 107.113C239.007 106.782 239.138 106.313 239.138 105.706C239.138 105.179 239.015 104.764 238.768 104.463C238.526 104.157 238.16 104.004 237.667 104.004C237.204 104.004 236.807 104.155 236.476 104.456C236.152 104.757 235.988 105.107 235.988 105.507C235.988 106.094 236.142 106.59 236.447 106.994C236.757 107.399 237.15 107.601 237.622 107.601ZM242.244 109.282H248.771V107.557H244.911L248.637 102.472V101.007H242.473V102.732H246.073L242.244 107.95V109.282ZM260.176 109.282H257.264L252.562 101.096H252.496C252.59 102.541 252.636 103.573 252.636 104.189V109.282H250.588V98.4607H253.478L258.174 106.565H258.226C258.151 105.159 258.114 104.165 258.114 103.582V98.4607H260.176V109.282ZM268.857 106.987C268.59 106.568 268.458 105.949 268.458 105.13C268.458 104.306 268.59 103.691 268.857 103.287C269.123 102.877 269.556 102.672 270.158 102.672C270.763 102.672 271.199 102.877 271.466 103.287C271.732 103.696 271.866 104.31 271.866 105.13C271.866 105.954 271.732 106.575 271.466 106.995C271.205 107.409 270.773 107.616 270.172 107.616C269.566 107.616 269.128 107.407 268.857 106.987ZM273.107 108.29C273.817 107.53 274.172 106.477 274.172 105.13C274.172 104.261 274.01 103.504 273.684 102.857C273.358 102.211 272.893 101.715 272.287 101.37C271.68 101.024 270.981 100.852 270.188 100.852C268.91 100.852 267.919 101.227 267.215 101.977C266.511 102.727 266.159 103.778 266.159 105.13C266.159 105.998 266.321 106.758 266.646 107.409C266.972 108.061 267.437 108.561 268.044 108.912C268.649 109.257 269.349 109.43 270.143 109.43C271.409 109.43 272.397 109.05 273.107 108.29ZM279.456 102.458C278.978 102.458 278.603 102.611 278.332 102.917C278.061 103.217 277.906 103.647 277.867 104.204H281.031C281.021 103.647 280.876 103.217 280.595 102.917C280.314 102.611 279.934 102.458 279.456 102.458ZM279.774 109.43C278.444 109.43 277.404 109.062 276.654 108.327C275.905 107.592 275.53 106.551 275.53 105.204C275.53 103.817 275.875 102.746 276.566 101.991C277.26 101.232 278.219 100.852 279.442 100.852C280.61 100.852 281.518 101.185 282.17 101.851C282.819 102.517 283.145 103.437 283.145 104.611V105.707H277.815C277.84 106.348 278.029 106.849 278.384 107.209C278.739 107.57 279.236 107.75 279.878 107.75C280.375 107.75 280.846 107.698 281.289 107.594C281.734 107.491 282.196 107.325 282.68 107.098V108.845C282.286 109.042 281.864 109.188 281.415 109.282C280.966 109.38 280.42 109.43 279.774 109.43ZM291.138 106.388L291.774 109.282H294.228L296.608 101.007H294.397L293.408 104.671C293.358 104.888 293.277 105.307 293.163 105.929C293.05 106.546 292.972 107.032 292.927 107.387H292.883C292.877 107.249 292.857 107.066 292.824 106.839C292.794 106.608 292.76 106.373 292.72 106.136C292.68 105.895 292.638 105.667 292.595 105.455C292.554 105.243 292.525 105.083 292.505 104.974L291.537 101.007H289.053L288.033 104.974L287.915 105.603C287.762 106.418 287.676 107.012 287.656 107.387H287.611C287.453 106.232 287.298 105.327 287.146 104.671L286.193 101.007H283.944L286.296 109.282H288.721L290.229 102.732H290.28L291.138 106.388ZM305.169 107.039H303.868V109.282H301.635V107.039H297.021V105.448L301.76 98.4607H303.868V105.263H305.169V107.039ZM301.635 105.263V103.427C301.635 103.121 301.647 102.677 301.672 102.095C301.696 101.513 301.717 101.175 301.731 101.081H301.672C301.489 101.485 301.27 101.88 301.014 102.265L299.032 105.263H301.635ZM306.921 108.297C307.477 109.052 308.242 109.43 309.213 109.43C310.262 109.43 311.044 109.023 311.556 108.209H311.651L312.087 109.282H313.817V97.7651H311.556V100.415C311.556 100.898 311.612 101.448 311.725 102.065H311.651C311.105 101.256 310.311 100.851 309.272 100.851C308.281 100.851 307.502 101.231 306.935 101.991C306.373 102.746 306.092 103.802 306.092 105.159C306.092 106.496 306.369 107.542 306.921 108.297ZM311.267 107.128C311.002 107.463 310.58 107.631 310.004 107.631C309.481 107.631 309.079 107.429 308.798 107.024C308.517 106.615 308.377 106.003 308.377 105.189C308.377 104.374 308.515 103.755 308.791 103.331C309.072 102.902 309.463 102.687 309.966 102.687C310.582 102.687 311.025 102.88 311.296 103.264C311.573 103.649 311.712 104.286 311.712 105.174V105.418C311.686 106.222 311.538 106.792 311.267 107.128ZM324.832 109.282H327.117V98.4607H325.239L321.758 101.236L322.859 102.613L324.101 101.614C324.248 101.495 324.512 101.246 324.892 100.866L324.855 101.991L324.832 103.02V109.282Z" fill="#E5EFFF"/>
<g filter="url(#filter3_d_3335_193746)">
<path d="M350.95 69.4598C342.068 73.7041 338.131 73.8051 338.131 73.8051V84.0115C338.131 87.4473 340.352 91.1864 343.179 93.9148C345.701 96.34 349.941 98.0579 350.85 98.0579C351.758 98.0579 355.997 96.4411 358.52 93.9148C361.346 91.1864 363.567 87.4473 363.567 84.0115V73.8051C363.769 73.9061 359.833 73.8051 350.95 69.4598Z" fill="url(#paint15_linear_3335_193746)"/>
</g>
<path d="M350.951 98.5634C349.842 98.5634 345.401 96.7444 342.877 94.3191C339.547 91.1865 337.628 87.3464 337.628 84.1126V73.401H338.132C338.132 73.401 342.069 73.1988 350.75 69.0557L350.951 68.9546L351.154 69.0557C359.733 73.1988 363.67 73.401 363.77 73.401H364.275V84.1126C364.275 87.3464 362.358 91.1865 359.026 94.3191C356.504 96.7444 352.062 98.5634 350.951 98.5634ZM338.638 74.3104V84.0116C338.638 87.0432 340.455 90.5801 343.584 93.5107C346.006 95.8348 350.144 97.4518 350.951 97.4518C351.759 97.4518 355.897 95.8348 358.32 93.5107C361.449 90.4791 363.266 86.9422 363.266 84.0116V74.3104C361.954 74.1084 358.017 73.401 350.951 70.0662C343.886 73.401 339.951 74.2094 338.638 74.3104Z" fill="#ABCDFF"/>
<path d="M355.595 81.2838C355.493 78.8586 353.475 76.8375 350.951 76.8375C348.429 76.8375 346.409 78.7575 346.309 81.2838V89.3681C346.309 89.6713 346.61 89.9745 346.914 89.9745C347.217 89.9745 347.519 89.6713 347.519 89.3681V81.3848C347.519 79.566 349.034 78.0501 350.85 78.0501C352.667 78.0501 354.181 79.566 354.181 81.3848V89.6713C354.181 89.9745 354.484 90.2775 354.787 90.2775C355.089 90.2775 355.392 89.9745 355.392 89.6713L355.595 81.2838Z" fill="white"/>
<path d="M354.888 90.6813C354.384 90.6813 353.98 90.2771 353.98 89.7719V81.4854C353.98 79.7675 352.567 78.4539 350.952 78.4539C349.337 78.4539 347.923 79.8686 347.923 81.4854V89.4687C347.923 89.9739 347.519 90.3781 347.015 90.3781C346.51 90.3781 346.106 89.9739 346.106 89.4687V81.3844C346.208 78.6559 348.327 76.6349 350.952 76.6349C353.576 76.6349 355.696 78.6559 355.797 81.2834V81.3844V89.8729C355.797 90.2771 355.393 90.6813 354.888 90.6813ZM350.952 77.8475C352.971 77.8475 354.585 79.4643 354.585 81.4854V89.7719C354.585 89.9739 354.788 90.1761 354.989 90.1761C355.191 90.1761 355.393 89.9739 355.393 89.7719V81.2834C355.292 78.9591 353.375 77.1401 351.052 77.1401C348.731 77.1401 346.814 78.9591 346.713 81.2834V89.4687C346.713 89.6707 346.914 89.8729 347.117 89.8729C347.318 89.8729 347.519 89.6707 347.519 89.4687V81.4854C347.318 79.4643 348.934 77.8475 350.952 77.8475Z" fill="white"/>
<path d="M354.283 90.6812H347.621C346.51 90.6812 345.602 89.7717 345.602 88.6601V83.8096C345.602 83.5064 345.905 83.2032 346.208 83.2032H355.696C355.997 83.2032 356.301 83.5064 356.301 83.8096V88.6601C356.301 89.7717 355.392 90.6812 354.283 90.6812Z" fill="white"/>
<path d="M354.283 90.9847H347.622C346.309 90.9847 345.3 89.9741 345.3 88.6605V83.8098C345.3 83.3046 345.703 82.9004 346.209 82.9004H355.696C356.201 82.9004 356.604 83.3046 356.604 83.8098V88.6605C356.604 89.9741 355.595 90.9847 354.283 90.9847ZM346.209 83.5066C346.006 83.5066 345.905 83.7088 345.905 83.8098V88.6605C345.905 89.6709 346.713 90.4793 347.722 90.4793H354.384C355.393 90.4793 356.201 89.6709 356.201 88.6605V83.8098C356.201 83.6078 355.998 83.5066 355.897 83.5066H346.209Z" fill="white"/>
<g filter="url(#filter4_d_3335_193746)">
<path d="M75.7924 31.7949H15.0134C11.1728 31.7949 8.1001 35.3716 8.1001 39.8423V76.0553C8.1001 80.5261 11.1728 84.1026 15.0134 84.1026H75.7924V31.7949Z" fill="#E5EFFF"/>
</g>
<path fill-rule="evenodd" clip-rule="evenodd" d="M51.3491 64.8658H49.0913V53.3334H51.3491V64.8658ZM33.1759 64.8658H30.918V60.026C30.918 58.8303 30.4738 58.2324 29.5856 58.2324C28.9537 58.2324 28.4973 58.4474 28.2161 58.8772C27.9346 59.3071 27.794 60.0038 27.794 60.9674V64.8658H25.5361V53.3334H27.794V55.6828C27.794 55.8656 27.7768 56.2955 27.7423 56.9724L27.6904 57.6395H27.8088C28.3122 56.8292 29.1118 56.424 30.2073 56.424C31.1795 56.424 31.9174 56.6858 32.4208 57.2096C32.9242 57.7333 33.1759 58.4845 33.1759 59.4628V64.8658ZM38.9281 58.0323C38.4493 58.0323 38.0742 58.1854 37.8028 58.4917C37.5314 58.7932 37.3759 59.2229 37.3363 59.7814H40.5048C40.4949 59.2229 40.3493 58.7932 40.068 58.4917C39.7867 58.1854 39.4066 58.0323 38.9281 58.0323ZM39.2464 65.0138C37.9137 65.0138 36.8725 64.6458 36.1223 63.9096C35.3722 63.1733 34.9971 62.1308 34.9971 60.7819C34.9971 59.3935 35.3427 58.3212 36.0336 57.5653C36.7294 56.8043 37.6893 56.424 38.9132 56.424C40.0828 56.424 40.9934 56.7575 41.6449 57.4244C42.2962 58.0915 42.622 59.0129 42.622 60.1889V61.2859H37.2846C37.3092 61.9283 37.4993 62.4298 37.8545 62.7904C38.2099 63.1511 38.7084 63.3315 39.35 63.3315C39.8483 63.3315 40.3197 63.2796 40.7639 63.1759C41.2081 63.0721 41.672 62.9066 42.1555 62.6793V64.4284C41.7608 64.6259 41.3388 64.7717 40.8898 64.8657C40.4406 64.9645 39.8929 65.0138 39.2464 65.0138ZM44.458 64.8658H46.7159V53.3334H44.458V64.8658ZM55.9248 62.5681C55.6582 62.148 55.5249 61.5279 55.5249 60.7077C55.5249 59.8827 55.6582 59.2675 55.9248 58.8624C56.1912 58.4523 56.6256 58.2472 57.2276 58.2472C57.8346 58.2472 58.2714 58.4523 58.5378 58.8624C58.8044 59.2725 58.9376 59.8876 58.9376 60.7077C58.9376 61.5329 58.8044 62.1555 58.5378 62.5756C58.2764 62.9905 57.8445 63.1981 57.2424 63.1981C56.6353 63.1981 56.1962 62.9881 55.9248 62.5681ZM60.1813 63.8725C60.892 63.1116 61.2473 62.0566 61.2473 60.7077C61.2473 59.8381 61.0845 59.0797 60.7587 58.4325C60.433 57.7852 59.9666 57.2886 59.3596 56.9427C58.7525 56.5969 58.0518 56.424 57.2572 56.424C55.9791 56.424 54.9871 56.7994 54.2813 57.5504C53.5756 58.3016 53.2227 59.354 53.2227 60.7077C53.2227 61.5775 53.3856 62.3384 53.7113 62.9905C54.0369 63.6427 54.5034 64.1442 55.1103 64.495C55.7174 64.8409 56.4182 65.0138 57.2127 65.0138C58.4812 65.0138 59.4706 64.6335 60.1813 63.8725Z" fill="#0068FF"/>
<g filter="url(#filter5_d_3335_193746)">
<path d="M83 31.7734H180.115C186.333 31.7734 191.374 36.8146 191.374 43.0331V72.5898C191.374 78.8083 186.333 83.8495 180.115 83.8495H83V31.7734Z" fill="url(#paint16_linear_3335_193746)"/>
<path d="M83.609 32.3824H180.115C185.997 32.3824 190.765 37.1509 190.765 43.0331V72.5898C190.765 78.472 185.997 83.2405 180.115 83.2405H83.609V32.3824Z" stroke="url(#paint17_linear_3335_193746)" stroke-width="1.21799"/>
</g>
<path fill-rule="evenodd" clip-rule="evenodd" d="M161.899 58.0331C161.782 57.7001 161.723 57.1976 161.723 56.526C161.723 55.8546 161.782 55.3574 161.899 55.0349C162.02 54.7071 162.213 54.5431 162.477 54.5431C162.984 54.5431 163.237 55.2042 163.237 56.526C163.237 57.8587 162.984 58.5249 162.477 58.5249C162.213 58.5249 162.02 58.361 161.899 58.0331ZM164.528 59.2546C164.999 58.6412 165.234 57.7265 165.234 56.5103C165.234 55.3469 164.993 54.4533 164.512 53.8292C164.037 53.2001 163.353 52.8854 162.46 52.8854C160.639 52.8854 159.727 54.0937 159.727 56.5103C159.727 57.6947 159.965 58.6017 160.44 59.2308C160.916 59.8549 161.589 60.1667 162.46 60.1667C163.369 60.1667 164.058 59.8628 164.528 59.2546ZM164.259 64.6483L170.684 53.052H168.783L162.358 64.6483H164.259ZM170.011 62.6653C169.894 62.3321 169.836 61.8298 169.836 61.1583C169.836 60.4867 169.894 59.9896 170.011 59.6671C170.132 59.3392 170.326 59.1753 170.589 59.1753C171.095 59.1753 171.35 59.8363 171.35 61.1583C171.35 62.4908 171.095 63.1571 170.589 63.1571C170.326 63.1571 170.132 62.9931 170.011 62.6653ZM172.641 63.8789C173.111 63.2655 173.346 62.3533 173.346 61.1424C173.346 59.979 173.105 59.0854 172.625 58.4615C172.15 57.8322 171.465 57.5176 170.573 57.5176C168.752 57.5176 167.84 58.7258 167.84 61.1424C167.84 62.3216 168.078 63.2258 168.552 63.8551C169.029 64.479 169.701 64.791 170.573 64.791C171.482 64.791 172.171 64.4869 172.641 63.8789ZM129.133 58.1837C128.472 57.5545 127.582 57.2398 126.463 57.2398C125.987 57.2398 125.589 57.2769 125.266 57.3509L124.989 57.4064L125.203 55.13H129.338V53.0519H123.056L122.62 58.9611L123.595 59.4846C123.806 59.4211 124.081 59.363 124.419 59.31C124.757 59.2519 125.066 59.2228 125.346 59.2228C126.893 59.2228 127.667 59.8071 127.667 60.9757C127.667 62.2025 126.92 62.8159 125.425 62.8159C124.928 62.8159 124.403 62.7472 123.848 62.6097C123.294 62.4669 122.808 62.2845 122.391 62.0623V64.1802C123.183 64.5979 124.223 64.8068 125.512 64.8068C126.996 64.8068 128.137 64.4577 128.934 63.7598C129.732 63.0618 130.131 62.065 130.131 60.7695C130.131 59.675 129.798 58.813 129.133 58.1837ZM112.44 64.648H114.856V60.1983C114.856 59.2783 115.002 58.6067 115.292 58.1836C115.588 57.7606 116.032 57.549 116.623 57.549C117.083 57.549 117.418 57.7103 117.629 58.0329C117.846 58.3501 117.954 58.8287 117.954 59.4685V64.648H120.378V58.8658C120.378 57.7289 120.12 56.904 119.602 56.391C119.09 55.8728 118.332 55.6137 117.328 55.6137C116.747 55.6137 116.224 55.7274 115.76 55.9549C115.3 56.1822 114.952 56.5021 114.714 56.9145H114.5C114.03 56.0474 113.132 55.6137 111.806 55.6137C111.225 55.6137 110.71 55.7301 110.261 55.9627C109.813 56.1901 109.469 56.5074 109.232 56.9145H109.097L108.772 55.7803H106.926V64.648H109.343V60.476C109.343 59.4342 109.483 58.686 109.762 58.2312C110.042 57.7765 110.491 57.549 111.109 57.549C111.569 57.549 111.904 57.7103 112.115 58.0329C112.332 58.3501 112.44 58.8287 112.44 59.4685V64.648ZM137.759 64.6486L137.291 63.4429H137.229C136.821 63.9558 136.402 64.3127 135.969 64.5138C135.541 64.7093 134.981 64.8072 134.289 64.8072C133.439 64.8072 132.768 64.564 132.277 64.0774C131.791 63.591 131.548 62.8983 131.548 61.9993C131.548 61.0581 131.875 60.3654 132.53 59.9213C133.19 59.4718 134.183 59.2232 135.509 59.1756L137.046 59.1281V58.7393C137.046 57.8404 136.587 57.3909 135.667 57.3909C134.96 57.3909 134.128 57.6052 133.172 58.0334L132.372 56.3995C133.391 55.8654 134.522 55.5984 135.763 55.5984C136.952 55.5984 137.862 55.8575 138.496 56.3757C139.129 56.8939 139.447 57.6818 139.447 58.7393V64.6486H137.759ZM137.046 60.5399L136.111 60.5716C135.409 60.5927 134.886 60.7197 134.543 60.9524C134.199 61.185 134.028 61.5393 134.028 62.0152C134.028 62.6972 134.418 63.0384 135.2 63.0384C135.76 63.0384 136.206 62.8772 136.539 62.5545C136.877 62.232 137.046 61.8036 137.046 61.2697V60.5399ZM149.65 57.0097V55.7804H146.56C146.466 55.7592 146.247 55.7274 145.903 55.6851C145.566 55.6376 145.272 55.6138 145.024 55.6138C143.857 55.6138 142.959 55.8781 142.331 56.4069C141.702 56.9358 141.388 57.684 141.388 58.6517C141.388 59.2544 141.522 59.7779 141.792 60.2221C142.066 60.6663 142.436 60.9888 142.9 61.1899C142.532 61.4065 142.249 61.6287 142.053 61.856C141.858 62.0781 141.76 62.3583 141.76 62.6967C141.76 62.9665 141.852 63.223 142.038 63.4662C142.222 63.7042 142.439 63.876 142.688 63.9817C142.042 64.1351 141.554 64.3915 141.221 64.7512C140.889 65.1108 140.723 65.5576 140.723 66.0917C140.723 66.8689 141.048 67.4717 141.696 67.9001C142.352 68.3337 143.297 68.5505 144.533 68.5505C146.149 68.5505 147.387 68.2649 148.248 67.6938C149.115 67.1228 149.548 66.319 149.548 65.2826C149.548 64.4735 149.292 63.8601 148.78 63.4424C148.272 63.0247 147.532 62.8158 146.56 62.8158H145.055C144.169 62.8158 143.725 62.6413 143.725 62.2924C143.725 62.0597 143.848 61.8481 144.097 61.6578L144.453 61.6974L144.889 61.7212C146.068 61.7212 146.986 61.4567 147.646 60.9281C148.311 60.394 148.645 59.651 148.645 58.6992C148.645 58.2074 148.518 57.7633 148.265 57.3667L149.65 57.0097ZM143.29 66.6865C142.972 66.4962 142.813 66.2344 142.813 65.9012C142.813 65.5576 142.962 65.2799 143.257 65.0685C143.558 64.8622 143.931 64.759 144.374 64.759H145.626C146.234 64.759 146.682 64.8226 146.972 64.9494C147.263 65.0763 147.408 65.3064 147.408 65.6394C147.408 66.0519 147.162 66.3771 146.671 66.6151C146.18 66.8531 145.502 66.9721 144.636 66.9721C144.061 66.9721 143.612 66.8769 143.29 66.6865ZM144.017 59.8256C143.802 59.5453 143.692 59.1645 143.692 58.6833C143.692 57.6152 144.137 57.0811 145.024 57.0811C145.901 57.0811 146.339 57.6152 146.339 58.6833C146.339 59.1645 146.234 59.5453 146.023 59.8256C145.812 60.1058 145.478 60.2458 145.024 60.2458C144.575 60.2458 144.239 60.1058 144.017 59.8256ZM152.932 60.1189L150.079 55.7803H152.82L154.539 58.6039L156.275 55.7803H159.016L156.133 60.1189L159.15 64.6479H156.402L154.539 61.61L152.67 64.6479H149.93L152.932 60.1189Z" fill="#E5EFFF"/>
<path opacity="0.5" d="M103.513 55.385H83V63.5901H103.513V55.385Z" fill="url(#paint18_linear_3335_193746)"/>
<g filter="url(#filter6_d_3335_193746)">
<path d="M186.949 21.0552C177.43 25.6036 173.211 25.7118 173.211 25.7118V36.6496C173.211 40.3316 175.591 44.3385 178.619 47.2624C181.324 49.8616 185.867 51.7026 186.841 51.7026C187.814 51.7026 192.356 49.9699 195.061 47.2624C198.089 44.3385 200.469 40.3316 200.469 36.6496V25.7118C200.686 25.8201 196.467 25.7118 186.949 21.0552Z" fill="url(#paint19_linear_3335_193746)"/>
</g>
<path d="M186.949 52.2433C185.759 52.2433 180.999 50.294 178.296 47.6949C174.726 44.3378 172.671 40.2226 172.671 36.7572V25.2779H173.212C173.212 25.2779 177.43 25.0613 186.732 20.6212L186.949 20.5129L187.165 20.6212C196.36 25.0613 200.577 25.2779 200.687 25.2779H201.227V36.7572C201.227 40.2226 199.171 44.3378 195.602 47.6949C192.898 50.294 188.138 52.2433 186.949 52.2433ZM173.861 26.2526V36.6489C173.861 39.8977 175.808 43.688 179.162 46.8286C181.865 49.4276 186.301 51.0521 187.057 51.0521C187.923 51.0521 192.357 49.3194 194.954 46.8286C198.307 43.5797 200.254 39.7894 200.254 36.6489V26.2526C198.848 26.0359 194.629 25.2779 187.057 21.7042C179.377 25.3861 175.158 26.1442 173.861 26.2526Z" fill="#ABCDFF"/>
<path d="M191.923 33.725C191.815 31.1258 189.652 28.96 186.948 28.96C184.243 28.96 182.08 31.0176 181.973 33.725V42.3885C181.973 42.7134 182.296 43.0383 182.621 43.0383C182.946 43.0383 183.27 42.7134 183.27 42.3885V33.8333C183.27 31.8839 184.893 30.2596 186.84 30.2596C188.787 30.2596 190.409 31.8839 190.409 33.8333V42.7134C190.409 43.0383 190.734 43.3633 191.059 43.3633C191.382 43.3633 191.707 43.0383 191.707 42.7134L191.923 33.725Z" fill="white"/>
<path d="M191.275 43.7968C190.735 43.7968 190.302 43.3636 190.302 42.822V33.9419C190.302 32.1009 188.788 30.693 187.056 30.693C185.327 30.693 183.811 32.2092 183.811 33.9419V42.4973C183.811 43.0387 183.378 43.4719 182.838 43.4719C182.297 43.4719 181.864 43.0387 181.864 42.4973V33.8336C181.974 30.9097 184.244 28.7437 187.056 28.7437C189.869 28.7437 192.141 30.9097 192.249 33.7252V42.822C192.249 43.3636 191.816 43.7968 191.275 43.7968ZM186.949 30.0433C189.111 30.0433 190.842 31.776 190.842 33.9419V42.822C190.842 43.0387 191.06 43.2552 191.275 43.2552C191.491 43.2552 191.708 43.0387 191.708 42.822V33.7252C191.6 31.2344 189.544 29.2852 187.056 29.2852C184.569 29.2852 182.514 31.2344 182.405 33.7252V42.4973C182.405 42.7138 182.622 42.9304 182.838 42.9304C183.055 42.9304 183.271 42.7138 183.271 42.4973V33.9419C183.163 31.776 184.894 30.0433 186.949 30.0433Z" fill="white"/>
<path d="M190.517 43.7965H183.378C182.189 43.7965 181.215 42.8219 181.215 41.6306V36.4324C181.215 36.1075 181.54 35.7827 181.864 35.7827H192.033C192.356 35.7827 192.681 36.1075 192.681 36.4324V41.6306C192.789 42.8219 191.815 43.7965 190.517 43.7965Z" fill="white"/>
<path d="M190.517 44.121H183.378C181.971 44.121 180.89 43.0381 180.89 41.6304V36.4321C180.89 35.8907 181.323 35.4575 181.864 35.4575H192.032C192.573 35.4575 193.006 35.8907 193.006 36.4321V41.6304C193.006 43.0381 191.923 44.121 190.517 44.121ZM181.864 36.1072C181.648 36.1072 181.54 36.3239 181.54 36.4321V41.6304C181.54 42.7132 182.404 43.5796 183.487 43.5796H190.626C191.707 43.5796 192.573 42.7132 192.573 41.6304V36.4321C192.573 36.2155 192.356 36.1072 192.248 36.1072H181.864Z" fill="white"/>
<defs>
<filter id="filter0_i_3335_193746" x="83" y="7" width="221" height="145" filterUnits="userSpaceOnUse" color-interpolation-filters="sRGB">
<feFlood flood-opacity="0" result="BackgroundImageFix"/>
<feBlend mode="normal" in="SourceGraphic" in2="BackgroundImageFix" result="shape"/>
<feColorMatrix in="SourceAlpha" type="matrix" values="0 0 0 0 0 0 0 0 0 0 0 0 0 0 0 0 0 0 127 0" result="hardAlpha"/>
<feOffset/>
<feGaussianBlur stdDeviation="1.56554"/>
<feComposite in2="hardAlpha" operator="arithmetic" k2="-1" k3="1"/>
<feColorMatrix type="matrix" values="0 0 0 0 0 0 0 0 0 0 0 0 0 0 0 0 0 0 0.15 0"/>
<feBlend mode="normal" in2="shape" result="effect1_innerShadow_3335_193746"/>
</filter>
<filter id="filter1_d_3335_193746" x="185.631" y="80.0702" width="170.766" height="49.2952" filterUnits="userSpaceOnUse" color-interpolation-filters="sRGB">
<feFlood flood-opacity="0" result="BackgroundImageFix"/>
<feColorMatrix in="SourceAlpha" type="matrix" values="0 0 0 0 0 0 0 0 0 0 0 0 0 0 0 0 0 0 127 0" result="hardAlpha"/>
<feOffset dy="1.00138"/>
<feGaussianBlur stdDeviation="0.500692"/>
<feColorMatrix type="matrix" values="0 0 0 0 0.180392 0 0 0 0 0.329412 0 0 0 0 0.545098 0 0 0 0.2 0"/>
<feBlend mode="normal" in2="BackgroundImageFix" result="effect1_dropShadow_3335_193746"/>
<feBlend mode="normal" in="SourceGraphic" in2="effect1_dropShadow_3335_193746" result="shape"/>
</filter>
<filter id="filter2_d_3335_193746" x="184.581" y="79.0445" width="172.866" height="51.395" filterUnits="userSpaceOnUse" color-interpolation-filters="sRGB">
<feFlood flood-opacity="0" result="BackgroundImageFix"/>
<feColorMatrix in="SourceAlpha" type="matrix" values="0 0 0 0 0 0 0 0 0 0 0 0 0 0 0 0 0 0 127 0" result="hardAlpha"/>
<feOffset dy="1.02564"/>
<feGaussianBlur stdDeviation="1.02564"/>
<feColorMatrix type="matrix" values="0 0 0 0 0 0 0 0 0 0 0 0 0 0 0 0 0 0 0.25 0"/>
<feBlend mode="normal" in2="BackgroundImageFix" result="effect1_dropShadow_3335_193746"/>
<feBlend mode="normal" in="SourceGraphic" in2="effect1_dropShadow_3335_193746" result="shape"/>
</filter>
<filter id="filter3_d_3335_193746" x="337.13" y="69.4598" width="27.4456" height="30.6008" filterUnits="userSpaceOnUse" color-interpolation-filters="sRGB">
<feFlood flood-opacity="0" result="BackgroundImageFix"/>
<feColorMatrix in="SourceAlpha" type="matrix" values="0 0 0 0 0 0 0 0 0 0 0 0 0 0 0 0 0 0 127 0" result="hardAlpha"/>
<feOffset dy="1.00138"/>
<feGaussianBlur stdDeviation="0.500692"/>
<feColorMatrix type="matrix" values="0 0 0 0 0.180392 0 0 0 0 0.329412 0 0 0 0 0.545098 0 0 0 0.2 0"/>
<feBlend mode="normal" in2="BackgroundImageFix" result="effect1_dropShadow_3335_193746"/>
<feBlend mode="normal" in="SourceGraphic" in2="effect1_dropShadow_3335_193746" result="shape"/>
</filter>
<filter id="filter4_d_3335_193746" x="7.02571" y="31.7949" width="69.8412" height="54.4565" filterUnits="userSpaceOnUse" color-interpolation-filters="sRGB">
<feFlood flood-opacity="0" result="BackgroundImageFix"/>
<feColorMatrix in="SourceAlpha" type="matrix" values="0 0 0 0 0 0 0 0 0 0 0 0 0 0 0 0 0 0 127 0" result="hardAlpha"/>
<feOffset dy="1.07439"/>
<feGaussianBlur stdDeviation="0.537193"/>
<feColorMatrix type="matrix" values="0 0 0 0 0.180392 0 0 0 0 0.329412 0 0 0 0 0.545098 0 0 0 0.2 0"/>
<feBlend mode="normal" in2="BackgroundImageFix" result="effect1_dropShadow_3335_193746"/>
<feBlend mode="normal" in="SourceGraphic" in2="effect1_dropShadow_3335_193746" result="shape"/>
</filter>
<filter id="filter5_d_3335_193746" x="80.9487" y="30.7478" width="112.477" height="56.1786" filterUnits="userSpaceOnUse" color-interpolation-filters="sRGB">
<feFlood flood-opacity="0" result="BackgroundImageFix"/>
<feColorMatrix in="SourceAlpha" type="matrix" values="0 0 0 0 0 0 0 0 0 0 0 0 0 0 0 0 0 0 127 0" result="hardAlpha"/>
<feOffset dy="1.02564"/>
<feGaussianBlur stdDeviation="1.02564"/>
<feColorMatrix type="matrix" values="0 0 0 0 0 0 0 0 0 0 0 0 0 0 0 0 0 0 0.25 0"/>
<feBlend mode="normal" in2="BackgroundImageFix" result="effect1_dropShadow_3335_193746"/>
<feBlend mode="normal" in="SourceGraphic" in2="effect1_dropShadow_3335_193746" result="shape"/>
</filter>
<filter id="filter6_d_3335_193746" x="172.165" y="21.0552" width="29.3574" height="32.7386" filterUnits="userSpaceOnUse" color-interpolation-filters="sRGB">
<feFlood flood-opacity="0" result="BackgroundImageFix"/>
<feColorMatrix in="SourceAlpha" type="matrix" values="0 0 0 0 0 0 0 0 0 0 0 0 0 0 0 0 0 0 127 0" result="hardAlpha"/>
<feOffset dy="1.04563"/>
<feGaussianBlur stdDeviation="0.522814"/>
<feColorMatrix type="matrix" values="0 0 0 0 0.180392 0 0 0 0 0.329412 0 0 0 0 0.545098 0 0 0 0.2 0"/>
<feBlend mode="normal" in2="BackgroundImageFix" result="effect1_dropShadow_3335_193746"/>
<feBlend mode="normal" in="SourceGraphic" in2="effect1_dropShadow_3335_193746" result="shape"/>
</filter>
<linearGradient id="paint0_linear_3335_193746" x1="311.609" y1="14.6467" x2="344.294" y2="14.6467" gradientUnits="userSpaceOnUse">
<stop stop-color="#E5EFFF"/>
<stop offset="1" stop-color="#3989FF"/>
</linearGradient>
<linearGradient id="paint1_linear_3335_193746" x1="308.605" y1="26.1263" x2="364.13" y2="26.1263" gradientUnits="userSpaceOnUse">
<stop stop-color="#E5EFFF"/>
<stop offset="1" stop-color="#3989FF"/>
</linearGradient>
<linearGradient id="paint2_linear_3335_193746" x1="304.324" y1="45.2564" x2="377.957" y2="45.2564" gradientUnits="userSpaceOnUse">
<stop stop-color="#E5EFFF"/>
<stop offset="1" stop-color="#3989FF"/>
</linearGradient>
<linearGradient id="paint3_linear_3335_193746" x1="308.582" y1="147.093" x2="360.436" y2="147.093" gradientUnits="userSpaceOnUse">
<stop stop-color="#E5EFFF"/>
<stop offset="1" stop-color="#3989FF"/>
</linearGradient>
<linearGradient id="paint4_linear_3335_193746" x1="307.073" y1="155.789" x2="342.221" y2="155.789" gradientUnits="userSpaceOnUse">
<stop stop-color="#E5EFFF"/>
<stop offset="1" stop-color="#3989FF"/>
</linearGradient>
<linearGradient id="paint5_linear_3335_193746" x1="71.0998" y1="114.161" x2="-28.3095" y2="114.161" gradientUnits="userSpaceOnUse">
<stop stop-color="#3989FF"/>
<stop offset="1" stop-color="#C8DEFF"/>
</linearGradient>
<linearGradient id="paint6_linear_3335_193746" x1="71.0998" y1="121.947" x2="-28.3095" y2="121.947" gradientUnits="userSpaceOnUse">
<stop stop-color="#3989FF"/>
<stop offset="1" stop-color="#C8DEFF"/>
</linearGradient>
<linearGradient id="paint7_linear_3335_193746" x1="24.3583" y1="130.105" x2="-9.69863" y2="130.105" gradientUnits="userSpaceOnUse">
<stop stop-color="#3989FF"/>
<stop offset="1" stop-color="#C8DEFF"/>
</linearGradient>
<linearGradient id="paint8_linear_3335_193746" x1="75.6326" y1="13.6395" x2="37.2106" y2="13.6395" gradientUnits="userSpaceOnUse">
<stop stop-color="#3989FF"/>
<stop offset="1" stop-color="#C8DEFF"/>
</linearGradient>
<linearGradient id="paint9_linear_3335_193746" x1="60.7695" y1="21.1002" x2="37.1803" y2="21.1002" gradientUnits="userSpaceOnUse">
<stop stop-color="#3989FF"/>
<stop offset="1" stop-color="#C8DEFF"/>
</linearGradient>
<linearGradient id="paint10_linear_3335_193746" x1="193.624" y1="160.695" x2="193.624" y2="200.047" gradientUnits="userSpaceOnUse">
<stop stop-color="#ABCDFF"/>
<stop offset="0.296875" stop-color="#C8DEFF"/>
<stop offset="0.645833" stop-color="#C8DEFF"/>
<stop offset="1" stop-color="#ABCDFF"/>
</linearGradient>
<linearGradient id="paint11_linear_3335_193746" x1="152" y1="196.911" x2="154.384" y2="212.023" gradientUnits="userSpaceOnUse">
<stop stop-color="#ABCDFF"/>
<stop offset="0.484375" stop-color="#C8DEFF"/>
<stop offset="1" stop-color="#C8DEFF"/>
</linearGradient>
<linearGradient id="paint12_linear_3335_193746" x1="76" y1="35.6697" x2="311.869" y2="135.539" gradientUnits="userSpaceOnUse">
<stop stop-color="#72ABFF"/>
<stop offset="0.484375" stop-color="#ABCDFF"/>
<stop offset="1" stop-color="#72ABFF"/>
</linearGradient>
<linearGradient id="paint13_linear_3335_193746" x1="86.8847" y1="103.737" x2="355.552" y2="103.737" gradientUnits="userSpaceOnUse">
<stop offset="0.232147" stop-color="#0054D4"/>
<stop offset="1" stop-color="#0091FF"/>
</linearGradient>
<linearGradient id="paint14_linear_3335_193746" x1="348.743" y1="103.376" x2="194.618" y2="103.376" gradientUnits="userSpaceOnUse">
<stop stop-color="#ABCDFF"/>
<stop offset="1" stop-color="#E5EFFF" stop-opacity="0"/>
</linearGradient>
<linearGradient id="paint15_linear_3335_193746" x1="323.093" y1="83.7716" x2="363.598" y2="83.7716" gradientUnits="userSpaceOnUse">
<stop stop-color="#0054D4"/>
<stop offset="1" stop-color="#0091FF"/>
</linearGradient>
<linearGradient id="paint16_linear_3335_193746" x1="18.9451" y1="57.8346" x2="191.475" y2="57.8346" gradientUnits="userSpaceOnUse">
<stop offset="0.232147" stop-color="#0054D4"/>
<stop offset="1" stop-color="#0091FF"/>
</linearGradient>
<linearGradient id="paint17_linear_3335_193746" x1="187.103" y1="57.4363" x2="88.1282" y2="57.4363" gradientUnits="userSpaceOnUse">
<stop stop-color="#ABCDFF"/>
<stop offset="1" stop-color="#E5EFFF" stop-opacity="0"/>
</linearGradient>
<linearGradient id="paint18_linear_3335_193746" x1="103.503" y1="59.4899" x2="83.0327" y2="59.4899" gradientUnits="userSpaceOnUse">
<stop stop-color="#448FFC"/>
<stop offset="0.8476" stop-color="#61C2F7" stop-opacity="0"/>
</linearGradient>
<linearGradient id="paint19_linear_3335_193746" x1="157.095" y1="36.3925" x2="200.502" y2="36.3925" gradientUnits="userSpaceOnUse">
<stop stop-color="#0054D4"/>
<stop offset="1" stop-color="#0091FF"/>
</linearGradient>
</defs>
</svg>
